<svg id="Camada_1" data-name="Camada 1" xmlns="http://www.w3.org/2000/svg" xmlns:xlink="http://www.w3.org/1999/xlink" viewBox="0 0 500 107.8"><defs><style>.cls-1{fill:#fff;}.cls-2{fill:#000f2a;}.cls-3{fill:url(#Gradiente_sem_nome_68);}.cls-4{fill:url(#Gradiente_sem_nome_68-2);}.cls-5{fill:url(#Gradiente_sem_nome_68-3);}</style><linearGradient id="Gradiente_sem_nome_68" x1="23.18" y1="11" x2="23.18" y2="118.61" gradientUnits="userSpaceOnUse"><stop offset="0" stop-color="#2e3463"/><stop offset="1" stop-color="#000f2a"/></linearGradient><linearGradient id="Gradiente_sem_nome_68-2" x1="94.55" y1="11" x2="94.55" y2="118.61" xlink:href="#Gradiente_sem_nome_68"/><linearGradient id="Gradiente_sem_nome_68-3" x1="56.67" y1="11" x2="56.67" y2="118.61" xlink:href="#Gradiente_sem_nome_68"/></defs><title>logo-solution-azul</title><rect class="cls-1" width="115.96" height="107.8" rx="46.8"/><path class="cls-2" d="M186.48,35.8V45H160.05c-4.44,0-6.25,1.81-6.25,5.43,0,3.35,1.45,5.16,6.79,5.16h11.22c13.22,0,16.57,6.06,16.57,13.48,0,8.51-4.44,14.49-15.66,14.49H144.93V74.27h27.79c4.43,0,6.24-1.54,6.24-5.25s-2-5.34-6.78-5.34H160.86c-13.21,0-16.47-6.6-16.47-13.94,0-8.59,4.43-13.94,15.57-13.94Z" transform="translate(0 -11)"/><path class="cls-2" d="M225.94,35.8c12.67,0,20.73,7.79,20.73,23.9s-8.06,23.9-20.73,23.9H215.89c-12.76,0-20.73-7.79-20.73-23.9s8-23.9,20.73-23.9ZM216.8,45c-8.33,0-12,4.34-12,14.66s3.62,14.57,12,14.57H225C233.27,74.27,237,70,237,59.7S233.27,45,225,45Z" transform="translate(0 -11)"/><path class="cls-2" d="M265.49,15.08V83.6H255.9V15.08Z" transform="translate(0 -11)"/><path class="cls-2" d="M286.4,35.8V64.41c0,5.61,4.16,9.86,11.76,9.86H306c7.6,0,11.67-4.25,11.67-9.86V35.8H327v29c0,11-7.06,18.83-20.73,18.83h-8.87c-13.67,0-20.73-7.79-20.73-18.83v-29Z" transform="translate(0 -11)"/><path class="cls-2" d="M340,35.8V24.49h9.68V35.8h13.22V45H349.66V67.67c0,5.34,1.9,7.15,6.43,7.15h6.61V83.6h-8.6c-9.87,0-14.12-4-14.12-16.48V45h-6.52V35.8Z" transform="translate(0 -11)"/><path class="cls-2" d="M379.62,17.79V28.93h-9.68V17.79Zm-.09,18V83.6h-9.59V35.8Z" transform="translate(0 -11)"/><path class="cls-2" d="M419.54,35.8c12.67,0,20.72,7.79,20.72,23.9s-8.05,23.9-20.72,23.9H409.49c-12.76,0-20.73-7.79-20.73-23.9s8-23.9,20.73-23.9ZM410.4,45c-8.33,0-11.95,4.34-11.95,14.66s3.62,14.57,11.95,14.57h8.23c8.24,0,11.95-4.25,11.95-14.57S426.87,45,418.63,45Z" transform="translate(0 -11)"/><path class="cls-2" d="M475.92,35.8c16.21,0,24.08,7.7,24.08,20.91V83.6h-9.68V56.71C490.32,49.2,486,45,475.92,45H460.27c-.82,0-1.18.45-1.18,1.35V83.6h-9.6V43.23c0-5.61,1.9-7.43,6.7-7.43Z" transform="translate(0 -11)"/><path class="cls-2" d="M223.08,106.73a7.71,7.71,0,0,1,8.08-7.8,7.55,7.55,0,0,1,5.8,2.37l-1.42,1.38a5.62,5.62,0,0,0-4.29-1.81,5.86,5.86,0,1,0,0,11.72,5.67,5.67,0,0,0,4.29-1.83l1.42,1.37a7.59,7.59,0,0,1-5.82,2.4A7.71,7.71,0,0,1,223.08,106.73Z" transform="translate(0 -11)"/><path class="cls-2" d="M272.94,112.46v1.9H261.87V99.1h10.76V101h-8.58v4.68h7.65v1.86h-7.65v4.92Z" transform="translate(0 -11)"/><path class="cls-2" d="M311.38,99.1v15.26H309.6L300.44,103v11.38h-2.18V99.1h1.79l9.15,11.38V99.1Z" transform="translate(0 -11)"/><path class="cls-2" d="M340.78,101h-5.23V99.1h12.62V101h-5.23v13.36h-2.16Z" transform="translate(0 -11)"/><path class="cls-2" d="M383.41,112.46v1.9H372.34V99.1h10.77V101h-8.59v4.68h7.65v1.86h-7.65v4.92Z" transform="translate(0 -11)"/><path class="cls-2" d="M418.94,114.36l-3.29-4.69c-.31,0-.64,0-1,0h-3.77v4.64h-2.18V99.1h5.95c4,0,6.36,2,6.36,5.32a4.83,4.83,0,0,1-3.36,4.82l3.62,5.12Zm-.07-9.94c0-2.18-1.46-3.42-4.25-3.42h-3.7v6.86h3.7C417.41,107.86,418.87,106.6,418.87,104.42Z" transform="translate(0 -11)"/><path class="cls-3" d="M44.22,83.54a8,8,0,0,0,2.15-5.78,9.67,9.67,0,0,0-.48-3,6.17,6.17,0,0,0-1.63-2.59,8.22,8.22,0,0,0-3.1-1.76,15.37,15.37,0,0,0-4.93-.67h-15A29.1,29.1,0,0,1,10.61,68.1a16.27,16.27,0,0,1-6.45-4.3,14.94,14.94,0,0,1-3.25-6c-.2-.73-.35-1.45-.48-2.18-.28,2.93-.43,6-.43,9.2a82.15,82.15,0,0,0,2.47,21h35Q42.06,85.79,44.22,83.54Z" transform="translate(0 -11)"/><path class="cls-4" d="M77.39,48.74q-4.26,4.93-4.26,16.11t4.21,16q4.2,4.92,13.67,4.92h22.46a81.66,81.66,0,0,0,2.49-21,81.63,81.63,0,0,0-2.49-21H91Q81.64,43.82,77.39,48.74Z" transform="translate(0 -11)"/><path class="cls-5" d="M69.35,89.09q-7.5-8-7.5-24.24t7.5-24.33q7.52-8,21.66-8h18.07C101.33,18.08,87.41,11,69.29,11H46.67c-20.5,0-35.49,8.93-42.41,27.2l.38-.4a16.33,16.33,0,0,1,6.26-3.87,26.87,26.87,0,0,1,9.18-1.39H52.77V43.82H19.69q-4.39,0-6.4,2.15a7.75,7.75,0,0,0-2,5.5,9.42,9.42,0,0,0,.43,2.82,6.06,6.06,0,0,0,1.53,2.48,7.26,7.26,0,0,0,2.92,1.72,14.53,14.53,0,0,0,4.68.63H36a29.51,29.51,0,0,1,10.8,1.67,17.57,17.57,0,0,1,6.64,4.35,14.39,14.39,0,0,1,3.35,6.12,27.1,27.1,0,0,1,.91,6.88,23.86,23.86,0,0,1-1.15,7.55,15.46,15.46,0,0,1-3.63,6,17.12,17.12,0,0,1-6.36,4,27.38,27.38,0,0,1-9.42,1.43H6.82c7.71,14.45,21.6,21.54,39.85,21.54H69.29c18.12,0,32-7.09,39.79-21.54H91Q76.85,97.07,69.35,89.09Z" transform="translate(0 -11)"/></svg>